<?xml version="1.0" standalone="no"?>
<!DOCTYPE svg PUBLIC "-//W3C//DTD SVG 20010904//EN"
 "http://www.w3.org/TR/2001/REC-SVG-20010904/DTD/svg10.dtd">
<svg version="1.0" xmlns="http://www.w3.org/2000/svg"
 width="348.000000pt" height="357.000000pt" viewBox="0 0 348.000000 357.000000"
 preserveAspectRatio="xMidYMid meet">

<g transform="translate(0.000000,357.000000) scale(0.100000,-0.100000)"
fill="#000000" stroke="none">
<path d="M1600 3558 c-189 -18 -405 -78 -585 -162 -335 -158 -644 -453 -808
-773 l-17 -32 278 -215 c152 -118 282 -216 287 -216 6 -1 22 29 37 65 94 230
284 433 514 548 152 77 289 108 474 108 238 0 439 -67 626 -212 28 -21 54 -39
59 -39 4 0 94 85 199 189 105 104 215 211 245 238 l53 49 -53 48 c-171 151
-449 297 -674 355 -190 48 -440 68 -635 49z"/>
<path d="M1780 1790 l0 -330 486 0 486 0 -7 -47 c-10 -68 -58 -185 -112 -272
-45 -72 -147 -184 -210 -232 l-32 -24 265 -205 c145 -113 271 -209 279 -215
28 -19 200 178 299 342 113 190 205 474 231 721 18 167 11 412 -14 535 l-12
57 -830 0 -829 0 0 -330z"/>
</g>
</svg>
